<svg width="1952" height="96" viewBox="0 0 1952 96" fill="none" xmlns="http://www.w3.org/2000/svg">
<path d="M1568 24H1564V28H1568V24Z" fill="black"/>
<path d="M1564 0H1560V4H1564V0Z" fill="black"/>
<path d="M1564 8H1560V16H1564V8Z" fill="black"/>
<path d="M1568 16H1564V20H1568V16Z" fill="black"/>
<path d="M1576 12H1572V16H1576V12Z" fill="black"/>
<path d="M1572 20H1568V24H1572V20Z" fill="black"/>
<path d="M1568 28V32H1572V36H1576V28H1568Z" fill="black"/>
<path d="M1568 44V52H1572V56H1568V52H1564V44H1560V56H1564V64H1560V92H1576V40H1572V44H1568ZM1572 76H1568V72H1572V76ZM1572 64H1568V60H1572V64Z" fill="black"/>
<path d="M1564 36V44H1568V40H1572V36H1564Z" fill="black"/>
<path d="M1564 28H1560V36H1564V28Z" fill="black"/>
<path d="M1576 8L1576 0H1572V4H1564V8H1576Z" fill="black"/>
<path d="M1628 44H1624V36H1620V48H1624V52H1628V56H1632V60H1628V56H1624V52H1620V64H1624V68H1620V92H1636V52H1632V48H1628V44ZM1632 68H1628V64H1632V68Z" fill="black"/>
<path d="M1636 44H1632V48H1636V44Z" fill="black"/>
<path d="M1636 28H1632V32H1636V28Z" fill="black"/>
<path d="M1632 16H1628V20H1632V16Z" fill="black"/>
<path d="M1636 20H1632V24H1636V20Z" fill="black"/>
<path d="M1624 24H1620V28H1628V20H1624V24Z" fill="black"/>
<path d="M1624 16H1620V20H1624V16Z" fill="black"/>
<path d="M1628 8H1624V12H1628V8Z" fill="black"/>
<path d="M1624 4H1620V8H1624V4Z" fill="black"/>
<path d="M1620 0H1616V4H1620V0Z" fill="black"/>
<path d="M1632 0H1628V4H1632V0Z" fill="black"/>
<path d="M1644 0H1640V4H1644V0Z" fill="black"/>
<path d="M1652 4H1644V8H1652V4Z" fill="black"/>
<path d="M1656 0H1652V4H1656V0Z" fill="black"/>
<path d="M1656 12H1652V16H1656V12Z" fill="black"/>
<path d="M1648 12H1644V16H1648V12Z" fill="black"/>
<path d="M1632 8V12H1636V16H1640V8H1632Z" fill="black"/>
<path d="M1616 8H1612V16H1616V8Z" fill="black"/>
<path d="M1612 4H1608V8H1612V4Z" fill="black"/>
<path d="M1604 0H1600V4H1604V0Z" fill="black"/>
<path d="M1604 8H1600V16H1604V8Z" fill="black"/>
<path d="M1628 32H1624V36H1628V32Z" fill="black"/>
<path d="M1628 36V44H1632V40H1636V36H1628Z" fill="black"/>
<path d="M1376 24H1368V28H1372V32H1368V36H1372L1372.02 32H1376.01L1376 24Z" fill="black"/>
<path d="M1372 48V40H1368L1368.01 36H1364.01L1364 44H1368V52H1376V48H1372Z" fill="black"/>
<path d="M1416 44H1412V32H1408V40H1404.01V44H1408L1408 48H1412.01L1412 52H1416V44Z" fill="black"/>
<path d="M1416 40H1420V32H1424V28C1422.01 28 1417.99 28 1416 28V24H1412V28H1416V40Z" fill="black"/>
<path d="M1352 0H1348V4H1352V0Z" fill="black"/>
<path d="M1360 0H1356V4H1360V0Z" fill="black"/>
<path d="M1368 0H1364V4H1368V0Z" fill="black"/>
<path d="M1368.01 12.036V8.03003H1364.01C1364.01 10.026 1364.01 14.046 1364.01 16.042H1367.99V20.048H1372V16.042H1368.01V12.036Z" fill="black"/>
<path d="M1356 16H1360V12H1356V8H1352V12L1355.99 12.036L1356 16Z" fill="black"/>
<path d="M1360 20H1356V24H1360V20Z" fill="black"/>
<path d="M1368.01 20.066H1364.01V24.072H1368.01V20.066Z" fill="black"/>
<path d="M1364 24.072H1360V32H1364V24.072Z" fill="black"/>
<path d="M1380 36L1379.99 32H1376L1376.01 36H1380Z" fill="black"/>
<path d="M1376 36H1372V40H1376V36Z" fill="black"/>
<path d="M1420 20H1416V24H1420V20Z" fill="black"/>
<path d="M1416 12L1412.01 12.036L1412 16H1415.99L1416 12Z" fill="black"/>
<path d="M1424 12H1420V16H1424V12Z" fill="black"/>
<path d="M1428 16H1424V20H1428V16Z" fill="black"/>
<path d="M1432 8H1428V12H1432V8Z" fill="black"/>
<path d="M1436 0H1432V4H1436V0Z" fill="black"/>
<path d="M1424 4H1420V8H1424V4Z" fill="black"/>
<path d="M1420 0H1416V4H1420V0Z" fill="black"/>
<path d="M1412 20H1408V24H1412V20Z" fill="black"/>
<path d="M1408 28.08H1404V32.086H1408V28.08Z" fill="black"/>
<path d="M1404 36H1400V40H1404V36Z" fill="black"/>
<path d="M1364.01 4.00598H1360V8.01198H1364.01V4.00598Z" fill="black"/>
<path d="M1680 0H1676V4H1680V0Z" fill="black"/>
<path d="M1688 0H1684V4H1688V0Z" fill="black"/>
<path d="M1692 4H1688V8H1692V4Z" fill="black"/>
<path d="M1684 4H1680V8H1684V4Z" fill="black"/>
<path d="M1692 12H1688V16H1692V12Z" fill="black"/>
<path d="M1700 0H1696V4H1700V0Z" fill="black"/>
<path d="M1708 4H1704V8H1708V4Z" fill="black"/>
<path d="M1712 0H1708V4H1712V0Z" fill="black"/>
<path d="M1720 4H1716V8H1720V4Z" fill="black"/>
<path d="M1724 8H1720V12H1724V8Z" fill="black"/>
<path d="M1716 12H1712V16H1716V12Z" fill="black"/>
<path d="M1708 12H1704V20H1708V12Z" fill="black"/>
<path d="M1712 20H1708V24H1712V20Z" fill="black"/>
<path d="M1712 28H1708V32H1712V28Z" fill="black"/>
<path d="M1708 24H1700V28H1708V24Z" fill="black"/>
<path d="M1704 32H1696V36H1704V32Z" fill="black"/>
<path d="M1704 36V40H1696V44H1700V48H1708V52H1700V48H1696V56H1700V64H1704V68H1700V64H1696V92H1712V60H1708V56H1712V44H1708V40H1712V36H1704ZM1708 88H1704V84H1708V88Z" fill="black"/>
<path d="M1700 20H1696V24H1700V20Z" fill="black"/>
<path d="M1732 0H1728V8H1732V0Z" fill="black"/>
<path d="M1732 12H1724V16H1732V12Z" fill="black"/>
<path d="M1700 8H1696V16H1700V8Z" fill="black"/>
<path d="M1684 12H1676V16H1684V12Z" fill="black"/>
<path d="M0 92H16V60H12V56H16V52H12V40H8V28C6.008 28 1.992 28 0 28V32H4V44H8V52H4V44H0V64H4V68H0V92ZM12 72H8V68H12V72ZM4 56H8V60H4V56Z" fill="black"/>
<path d="M20 44V40H16V52H20V48H24V52H28V44H20Z" fill="black"/>
<path d="M28 36H20V40H28V36Z" fill="black"/>
<path d="M44 44H40V52H44V44Z" fill="black"/>
<path d="M8 4V0C6.008 0 1.992 0 0 0V4C1.992 4 6.008 4 8 4Z" fill="black"/>
<path d="M16 4H12V8H16V4Z" fill="black"/>
<path d="M20 0H16V4H20V0Z" fill="black"/>
<path d="M24 4H20V8H24V4Z" fill="black"/>
<path d="M32 0H28V4H32V0Z" fill="black"/>
<path d="M40 4H36V8H40V4Z" fill="black"/>
<path d="M44 0H40V4H44V0Z" fill="black"/>
<path d="M44 12H40V16H44V12Z" fill="black"/>
<path d="M36 12H32V16H36V12Z" fill="black"/>
<path d="M32 8H28V12H32V8Z" fill="black"/>
<path d="M24 16V12C22.008 12 17.992 12 16 12V16C17.992 16 22.008 16 24 16Z" fill="black"/>
<path d="M16 16H12V20H16V16Z" fill="black"/>
<path d="M8 16V8H4V12H0V20H4V16H8Z" fill="black"/>
<path d="M8 20H4V24H8V20Z" fill="black"/>
<path d="M12 24H8V28H12V24Z" fill="black"/>
<path d="M16 28H12V40H16V28Z" fill="black"/>
<path d="M32 36V40H28V44H32V52H36V40H44V36H32Z" fill="black"/>
<path d="M512 20H508V24H512V20Z" fill="black"/>
<path d="M516 32V36H520C520 34.008 520 29.992 520 28H516V32Z" fill="black"/>
<path d="M516 44H512V40H516V36C514.008 36 509.992 36 508 36C508 39.562 508 44.438 508 48C509.992 48 514.008 48 516 48V52H520V56H524C524 52.438 524 47.562 524 44H520V40H516V44Z" fill="black"/>
<path d="M516 52C514.008 52 509.992 52 508 52V56H512V60H508V92H524V60H520V56H516V52ZM516 64V68H512V64H516Z" fill="black"/>
<path d="M492 0H488C488 1.992 488 6.008 488 8H492C492 6.008 492 1.992 492 0Z" fill="black"/>
<path d="M499.998 0H495.998V4H499.998V0Z" fill="black"/>
<path d="M496 8H492V12H496V8Z" fill="black"/>
<path d="M492 12H488V16H492V12Z" fill="black"/>
<path d="M500 12H496V16H500V12Z" fill="black"/>
<path d="M504 8H500V12H504V8Z" fill="black"/>
<path d="M508 4H504V8H508V4Z" fill="black"/>
<path d="M516 0H512V4H516V0Z" fill="black"/>
<path d="M520 4H516V8H520V4Z" fill="black"/>
<path d="M524 8H520V12H524V8Z" fill="black"/>
<path d="M528 0H524V4H528V0Z" fill="black"/>
<path d="M532 4H528V8H532V4Z" fill="black"/>
<path d="M544 0H540V4H544V0Z" fill="black"/>
<path d="M540 12V16H544C544 14.008 544 9.992 544 8H540V12Z" fill="black"/>
<path d="M528 12V16C529.992 16 534.008 16 536 16V12C534.008 12 529.992 12 528 12Z" fill="black"/>
<path d="M524 24H520V28H524V24Z" fill="black"/>
<path d="M516 16V20C517.992 20 522.008 20 524 20V16C522.008 16 517.992 16 516 16Z" fill="black"/>
<path d="M516 24H512V28H516V24Z" fill="black"/>
<path d="M512 28H508V32H512V28Z" fill="black"/>
<path d="M512 8H508V12H512V8Z" fill="black"/>
<path d="M516 12H512V16H516V12Z" fill="black"/>
<path d="M524 36H520V40H524V36Z" fill="black"/>
<path d="M576 32H572V36H576V32Z" fill="black"/>
<path d="M580 48H584C584 46.008 584 41.992 584 40H580C580 41.992 580 46.008 580 48Z" fill="black"/>
<path d="M580 8H576C576 9.992 576 14.008 576 16H580C580 14.008 580 9.992 580 8Z" fill="black"/>
<path d="M584 0H580V4H584V0Z" fill="black"/>
<path d="M576 4H572V8H576V4Z" fill="black"/>
<path d="M584 16H580V20H584V16Z" fill="black"/>
<path d="M572 0H568V4H572V0Z" fill="black"/>
<path d="M572 16H568V20H572V16Z" fill="black"/>
<path d="M584 32H580V36H584V32Z" fill="black"/>
<path d="M580 36H576V40H580V36Z" fill="black"/>
<path d="M572 36H568V40H572V36Z" fill="black"/>
<path d="M576 32H580C580 30.008 580 25.992 580 24C578.008 24 573.992 24 572 24V28H576V32Z" fill="black"/>
<path d="M572 28H568V32H572V28Z" fill="black"/>
<path d="M576 44V40H572V44H568V48H572V52H576V56H580V60H576V56H572V52H568V92H584V52H580V48H576V44ZM576 64V68H572V64H576ZM576 76V72H580V76H576Z" fill="black"/>
<path d="M736 52H740V56H744V60H748V64H744V60H740V56H736V92H752V56H748V52H744V48H740V44H744L743.988 40.006H740V36H736V40L740 40.006V44H736V52Z" fill="black"/>
<path d="M756.012 36.092H760.018C760.022 34.078 760.012 30.016 760 28H756V24H752L752.024 28H756C756.008 30.016 756.016 34.078 756.012 36.092Z" fill="black"/>
<path d="M776 52V48H772V52H776V56H780V52H776Z" fill="black"/>
<path d="M740 16H736V20H740V16Z" fill="black"/>
<path d="M744 20H740V24H744V20Z" fill="black"/>
<path d="M748 12H744V16H748V12Z" fill="black"/>
<path d="M752 16H748V20H752V16Z" fill="black"/>
<path d="M760 20H756V24H760V20Z" fill="black"/>
<path d="M768 20H764V24H768V20Z" fill="black"/>
<path d="M764 32V36H768C768 34.008 768 29.992 768 28H764V24H760V28H763.988L764 32Z" fill="black"/>
<path d="M776 36H780V32H776V28H772V32H776V36Z" fill="black"/>
<path d="M808 0H804V4H808V0Z" fill="black"/>
<path d="M812 0V4H816V8H820V0H812Z" fill="black"/>
<path d="M808.006 8V12.006H811.994V16.012H816V12.006H811.994L812.012 8H808.006Z" fill="black"/>
<path d="M808 16H804V20H808V16Z" fill="black"/>
<path d="M816 20H812V24H816V20Z" fill="black"/>
<path d="M820 40H816V36H812V40H808V36H804V44H808V48H804L804.014 56H808V52H812.026L812 44H816V52H812V56H808V60H812V64H816V68H812V64H808V60H800V56H796V52H788V48H784V44H788V48H792V44H788V40H784L784.018 36H780V40H772V36H768V40H764V36H760V40H764V44H768V48H772V44H776L776.006 48C780.726 47.956 780.026 47.306 780 52H784V56H780L780.012 60.164L808.02 92H820V56H816V52H820V40ZM818.35 64.188C818.35 64.182 818.348 64.176 818.348 64.17L818.35 64.188ZM800 68H804V72H800V68ZM792 64V60H788V56H792V60H796V64H792Z" fill="black"/>
<path d="M820 32H816V36H820V32Z" fill="black"/>
<path d="M808 28H804V32H808V28Z" fill="black"/>
<path d="M820 24H816V28H820V24Z" fill="black"/>
<path d="M812 24H808V28H812V32H808V36H812V32H816V28H812.006L812 24Z" fill="black"/>
<path d="M748.018 48.146L748 52H752C752.012 49.302 752.034 42.616 752 40H756V36H752V40L748.006 40.006L748 44L743.988 44.012L744 48H748" fill="black"/>
<path d="M748.018 32.046L748 36H751.976C751.994 34.008 752.006 29.992 752 28H748.018V32.046Z" fill="black"/>
<path d="M748.006 36H743.994V40.006H748.006V36Z" fill="black"/>
<path d="M752 8V12H756V16H760V12H756V8H752Z" fill="black"/>
<path d="M752 3.994V0H748C747.996 1.992 747.992 6.008 747.994 8H752V3.994Z" fill="black"/>
<path d="M744 7.99402H739.994V12H744V7.99402Z" fill="black"/>
<path d="M740 0H736V4H739.976L740 0Z" fill="black"/>
<path d="M748 24H743.994V28.006H748V24Z" fill="black"/>
<path d="M740 24H736V28L739.994 28.006L740 36H744L743.982 28.006H739.994L740 24Z" fill="black"/>
<path d="M188 52H192.006L192 56H196V60H200L200.006 64H196L196.006 60H192L192.006 56H188V92H204.006V56H200.006V52H196.006V48H192.006L192 44H196.006L196 40.006L192 40L192.006 36H188V40L192.006 40.006V44H188V52Z" fill="black"/>
<path d="M228.006 52V48H224.006V52H228.006V56H232.006V52H228.006Z" fill="black"/>
<path d="M192 16H188V20H192V16Z" fill="black"/>
<path d="M195.997 20.0019L192.001 20.0079L192.007 24.0079L196.003 24.0019L195.997 20.0019Z" fill="black"/>
<path d="M199.997 24.0022L196.001 24.0082L196.007 28.0082L200.003 28.0022L199.997 24.0022Z" fill="black"/>
<path d="M200.006 12H196.006V16H200.006V12Z" fill="black"/>
<path d="M204.006 16H200.006V20H204.006V16Z" fill="black"/>
<path d="M212 20H208V24H212V20Z" fill="black"/>
<path d="M208 24H204V28H208V24Z" fill="black"/>
<path d="M212 28H208V36H212V28Z" fill="black"/>
<path d="M216 24H212V28H216V24Z" fill="black"/>
<path d="M220 28H216V36H220V28Z" fill="black"/>
<path d="M192 24H188V28H192V24Z" fill="black"/>
<path d="M196 28H192V36H196V28Z" fill="black"/>
<path d="M204 28H200V36H204V28Z" fill="black"/>
<path d="M220.006 20H216.006V24H220.006V20Z" fill="black"/>
<path d="M228 28H224V32H228V28Z" fill="black"/>
<path d="M232 32H228V36H232V32Z" fill="black"/>
<path d="M260.006 0H256.006V4H260.006V0Z" fill="black"/>
<path d="M264.006 0V4H268.006V8H272.006V0H264.006Z" fill="black"/>
<path d="M260.012 8V12.006H264V16.012H268.006V12.006H264L264.018 8H260.012Z" fill="black"/>
<path d="M260.006 16H256.006V20H260.006V16Z" fill="black"/>
<path d="M268.006 20H264.006V24H268.006V20Z" fill="black"/>
<path d="M272 40H268L268.006 36H264.006L264 40H260L260.006 36H256V44H260V48H256V56H260.006L260 52H264V44H268V52H264.006L264 56H260.006L260 60H264V64H268V68H264L264.006 64H260L260.006 60H252V56H248V52H240L240.006 48H236.006V44H240L240.006 48H244V44H240.006L240 40H236L236.026 36H232V40H224V36H220.006V40H216L216.006 36H212.006V40H216V44H220V48H224V44H228.006L228.012 48C232.732 47.956 232.032 47.306 232.006 52H236.006V56H232.006L232.018 60.164L260.026 92H272V56H268L268.006 52H272V40ZM270.358 64.188C270.358 64.182 270.356 64.176 270.356 64.17L270.358 64.188ZM252 68H256V72H252V68ZM244 64V60H240V56H244V60H248V64H244Z" fill="black"/>
<path d="M272 32H268.006V36H272V32Z" fill="black"/>
<path d="M260.006 28H256.006V32H260.006V28Z" fill="black"/>
<path d="M272 24H268.006V28H272V24Z" fill="black"/>
<path d="M264.006 24H260.006V28H264.006V32H260.006V36H264.006V32H268.006V28H264.012L264.006 24Z" fill="black"/>
<path d="M200 48L200.006 52H204C204 49.344 204 42.566 204 40H208.006V36H204.006V40L200.012 40.006L200 44H196V48H200Z" fill="black"/>
<path d="M200.012 36H196V40.006H200.012V36Z" fill="black"/>
<path d="M204.006 8V12H208.006V16H212.006V12H208.006V8H204.006Z" fill="black"/>
<path d="M204.006 3.994V0H200.006C200.002 1.992 199.998 6.008 200 8H204.006V3.994Z" fill="black"/>
<path d="M196.006 7.99402H192V12H196.006V7.99402Z" fill="black"/>
<path d="M192.006 0H188.006V4H191.982L192.006 0Z" fill="black"/>
<path d="M912 76V60H908V56H912V48H904V44H900V36H896V48H900V52H904V56H900V52H896V92H940V76H912ZM900 80H904V84H900V80ZM904 64H900V60H904V64Z" fill="black"/>
<path d="M904 40V44H912V36H908V40H904Z" fill="black"/>
<path d="M912 0H908V4H912V0Z" fill="black"/>
<path d="M900 0H896V4H900V0Z" fill="black"/>
<path d="M908 4H904V8H908V4Z" fill="black"/>
<path d="M904 12H900V16H904V12Z" fill="black"/>
<path d="M908 16H904V20H908V16Z" fill="black"/>
<path d="M912 20H908V24H912V20Z" fill="black"/>
<path d="M900 20H896V24H900V20Z" fill="black"/>
<path d="M908 36V28H904V24H900V36H908Z" fill="black"/>
<path d="M912 8H908V12H912V8Z" fill="black"/>
<path d="M900 8H896V12H900V8Z" fill="black"/>
<path d="M1192 28H1188V36H1192V28Z" fill="black"/>
<path d="M1184 56H1188V52H1192V56H1188V60H1192V64H1188V60H1184V92H1200V56H1196V52H1200V48H1196V44H1200V40H1196V36H1192V40H1188V44H1192V48H1188V44H1184V56ZM1192 72H1188V68H1192V72Z" fill="black"/>
<path d="M1188 36H1184V40H1188V36Z" fill="black"/>
<path d="M1200 28H1196V36H1200V28Z" fill="black"/>
<path d="M1188 24H1184V28H1188V24Z" fill="black"/>
<path d="M1192 20H1188V24H1192V20Z" fill="black"/>
<path d="M1188 16H1184V20H1188V16Z" fill="black"/>
<path d="M1196 16H1192V20H1196V16Z" fill="black"/>
<path d="M1200 20H1196V24H1200V20Z" fill="black"/>
<path d="M1200 8H1196V12H1200V8Z" fill="black"/>
<path d="M1200 0H1196V4H1200V0Z" fill="black"/>
<path d="M1188 0H1184V8H1188V0Z" fill="black"/>
<path d="M1192 8H1188V12H1192V8Z" fill="black"/>
<path d="M980 27.994V23.994H976V27.994H980Z" fill="black"/>
<path d="M976.023 40.116H972.018V44.122H976.023V40.116Z" fill="black"/>
<path d="M1048.01 52.004V48.008H1044.01V52.004H1040.02V48.008H1036.01C1036.01 50 1036.01 54.01 1036.01 56H1040V60H1036V56H1032.66C1024.88 83.818 983.364 83.81 975.592 56H972H968H964H968V52H972V56C972.802 56 975.252 56 976.012 56V48.008C974.02 48.008 970.008 48.008 968.018 48.008L968 40H972L972.006 36H968V32H964V36H960.006L960 40H956V44H964V48H956V52H960V56H957.468H960H956.448C964.19 100.496 1022.96 108.124 1044.7 72H1040V68H1047.12C1049.12 64.26 1050.65 60.242 1051.58 56C1051.58 56 1052.02 53.884 1052 52.004C1051.95 52.004 1048.06 52.004 1048.01 52.004ZM964.012 36H968V39.996L964 40L964.012 36ZM972 64H968V60H972V64ZM984 76H980V72H984V76ZM1032 76H1028V72H1032V76ZM1036 68H1032V64H1036V68ZM1048 60H1044V56H1048V60Z" fill="black"/>
<path d="M960 32H956V36H960V32Z" fill="black"/>
<path d="M976.023 28.08H972.018V36.092H976.023V28.08Z" fill="black"/>
<path d="M972 24H968V28H972V24Z" fill="black"/>
<path d="M976 20H972V24H976V20Z" fill="black"/>
<path d="M976 8H972V16H976V8Z" fill="black"/>
<path d="M984 12H980V20H984V12Z" fill="black"/>
<path d="M992 16H988V20H992V16Z" fill="black"/>
<path d="M996.018 8.03003H988.006V12.036H996.018V8.03003Z" fill="black"/>
<path d="M1004.03 12.036H1000.02V16.042H1004.03V12.036Z" fill="black"/>
<path d="M1000.02 0H996.018V4.006H1000.02V0Z" fill="black"/>
<path d="M1008.02 4.00598H1000.02V8.01198H1008.02V4.00598Z" fill="black"/>
<path d="M1016.01 8.03003H1008.02V12.036H1016.01V8.03003Z" fill="black"/>
<path d="M1020.02 0H1016.01V4.006H1020.02V0Z" fill="black"/>
<path d="M1028 12H1032V7.99998H1028.01V4.00598H1024.01V8.01198H1028V12Z" fill="black"/>
<path d="M1040 16V12L1032.02 12.036L1032 16H1040Z" fill="black"/>
<path d="M1032 20H1028V24H1032V20Z" fill="black"/>
<path d="M1036 24H1032V32H1036V24Z" fill="black"/>
<path d="M1044 20H1040V24H1044V20Z" fill="black"/>
<path d="M1048 24H1044V28H1048V24Z" fill="black"/>
<path d="M1044 28H1040V32H1044V28Z" fill="black"/>
<path d="M1052 32H1044V36H1052V32Z" fill="black"/>
<path d="M1040 32H1036V36H1039.99L1040 40H1036V44H1040V48H1044V44H1048V48H1052V40H1044L1043.99 36H1040V32Z" fill="black"/>
<path d="M1036 36H1032V40H1036V36Z" fill="black"/>
<path d="M1028 16H1024V20H1028V16Z" fill="black"/>
<path d="M1024 8H1020V16H1024V8Z" fill="black"/>
<path d="M988.024 0H984.018V4.006H988.024V0Z" fill="black"/>
<path d="M968 16H964V20H968V16Z" fill="black"/>
<path d="M964 28H960V32H964V28Z" fill="black"/>
<path d="M379.164 55.89C379.914 52.422 380.066 48.016 380 44H372V40H380V36H368V40H368.004L368.016 51.884H364.028L364 40H360V48C360 48 360 48 359.922 48C359.83 49.148 359.672 50.66 359.478 51.884H359.46C358.726 56.14 357.196 60.252 354.95 63.92H354.946C353.102 66.552 350.936 69 348.004 70.41V70.436C346.806 70.992 345.48 71.672 344.016 71.932V71.986C342.784 72.348 341.478 72.656 340.01 72.892C340.01 74.602 340.01 78.232 340.01 79.962H336.022C336.022 78.394 336.022 74.938 336.022 73.4C334.772 73.526 333.412 73.618 332.016 73.69V73.672C328.214 74.132 323.716 74.202 320.002 74.206V72H316.002V68H320.002C320.002 62.452 320.002 49.362 320.002 44H312.002V40H304.002V44H308.002V48H312.002V52H316.002V56H312.002V52H308.002V48H304.002C304.002 49.992 304.002 54.008 304.002 56H308.002V60H304.002V68H308.002V71.934C307.994 71.934 304.008 72 304.002 72V92C312.002 92 334.448 92.506 340.012 91.404V91.42C342.758 90.988 345.39 90.464 348.024 89.662V89.644C349.384 89.264 350.724 88.846 352.03 88.338V88.332C352.314 88.224 352.564 88.1 352.848 87.976H352.846C355.37 87 357.756 85.76 360.024 84.26V84.28C361.346 83.298 362.754 82.396 364.012 81.25V81.256C364.504 80.838 364.994 80.402 365.468 79.964H365.464C366.352 79.148 367.204 78.296 368.02 77.408V77.414C368.452 76.946 368.864 76.462 369.26 75.958H369.27C371.342 73.474 373.194 70.764 374.762 67.928H374.744C376.322 64.394 377.198 62.882 378.152 59.916C376.812 60.01 373.384 60.01 372.002 60.002V56.002C373.77 56.02 377.414 55.986 379.164 55.89ZM316 60V64H312V60H316ZM352.01 83.97H348.022V79.964H352.01V83.97ZM367.998 72H364V68H368L367.998 72ZM368 64H364V56H368V64ZM376 48V52H372V48H376Z" fill="black"/>
<path d="M320 0H316V4H320V0Z" fill="black"/>
<path d="M316 4H312V8H316V4Z" fill="black"/>
<path d="M320 8H316V12H320V8Z" fill="black"/>
<path d="M324 12H320V16H324V12Z" fill="black"/>
<path d="M328 16H324V20H328V16Z" fill="black"/>
<path d="M336 8H332V12H336V8Z" fill="black"/>
<path d="M336 0H332V4H336V0Z" fill="black"/>
<path d="M340 12H336V16H340V12Z" fill="black"/>
<path d="M344 4H340V8H344V4Z" fill="black"/>
<path d="M348 8H344V12H348V8Z" fill="black"/>
<path d="M352 4H348V8H352V4Z" fill="black"/>
<path d="M360 8H352V12H360V8Z" fill="black"/>
<path d="M344 16H340V20H344V16Z" fill="black"/>
<path d="M352 16H348V20H352V16Z" fill="black"/>
<path d="M364 16H360V20H364V16Z" fill="black"/>
<path d="M360 20H356V24H360V20Z" fill="black"/>
<path d="M356 24H352V28H356V24Z" fill="black"/>
<path d="M360 28H356V32H360V28Z" fill="black"/>
<path d="M368 28H364V32H368V28Z" fill="black"/>
<path d="M368 32H360V36H368V32Z" fill="black"/>
<path d="M368 20H364V24H368V20Z" fill="black"/>
<path d="M372 24H368V28H372V24Z" fill="black"/>
<path d="M376 28H372V32H376V28Z" fill="black"/>
<path d="M368 12H364V16H368V12Z" fill="black"/>
<path d="M328 4H324V12H328V4Z" fill="black"/>
<path d="M308 0H304V4H308V0Z" fill="black"/>
<path d="M308 12H304V16H308V12Z" fill="black"/>
<path d="M316 16H308V20H316V16Z" fill="black"/>
<path d="M308 20H304V24H308V20Z" fill="black"/>
<path d="M320 20H316V24H320V20Z" fill="black"/>
<path d="M316 24H312V28H316V24Z" fill="black"/>
<path d="M320 28H316V32H320V28Z" fill="black"/>
<path d="M312 36V32H308V28H304V36C305.992 36 310.008 36 312 36Z" fill="black"/>
<path d="M320 36H312V40H320V36Z" fill="black"/>
<path d="M1760 16H1756V24H1760V16Z" fill="black"/>
<path d="M1756 24H1752V28H1756V24Z" fill="black"/>
<path d="M1764 32V28H1756V32H1760V40H1764V32Z" fill="black"/>
<path d="M1840 48H1836V52H1840V48Z" fill="black"/>
<path d="M1836 44H1840V48H1844V36H1840V40H1836V36H1840V32C1838.01 32 1833.99 32 1832 32V40H1828V44H1832V48H1836V44Z" fill="black"/>
<path d="M1828 32H1824V40H1828V32Z" fill="black"/>
<path d="M1820 24H1816V28H1820V24Z" fill="black"/>
<path d="M1824 28H1820V32H1824V28Z" fill="black"/>
<path d="M1832 24H1828V32H1832V24Z" fill="black"/>
<path d="M1840 24H1836V28H1840V24Z" fill="black"/>
<path d="M1792 8H1788V12H1792V8Z" fill="black"/>
<path d="M1792 0H1788V4H1792V0Z" fill="black"/>
<path d="M1796 4H1792V8H1796V4Z" fill="black"/>
<path d="M1796 12H1792V16H1796V12Z" fill="black"/>
<path d="M1804 8H1800V16H1804V8Z" fill="black"/>
<path d="M1812 16H1808V20H1812V16Z" fill="black"/>
<path d="M1816 4H1812V12H1816V4Z" fill="black"/>
<path d="M1808 0H1804V4H1808V0Z" fill="black"/>
<path d="M1824 8H1820V12H1824V8Z" fill="black"/>
<path d="M1828 12H1824V16H1828V12Z" fill="black"/>
<path d="M1832 16H1828V20H1832V16Z" fill="black"/>
<path d="M1820 16H1816V20H1820V16Z" fill="black"/>
<path d="M1824 20H1820V24H1824V20Z" fill="black"/>
<path d="M1780 12H1776V20H1780V12Z" fill="black"/>
<path d="M1772 12H1768V20H1772V12Z" fill="black"/>
<path d="M1768 20H1764V24H1768V20Z" fill="black"/>
<path d="M1772 24H1768V28H1772V24Z" fill="black"/>
<path d="M1772 4H1768V8H1772V4Z" fill="black"/>
<path d="M1784 4H1776V8H1784V4Z" fill="black"/>
<path d="M1768 40H1764V44H1768V40Z" fill="black"/>
<path d="M1872 0H1868V4H1872V0Z" fill="black"/>
<path d="M1876 4H1872V8H1876V4Z" fill="black"/>
<path d="M1872 8H1868V12H1872V8Z" fill="black"/>
<path d="M1876 16H1872V20H1876V16Z" fill="black"/>
<path d="M1880 8H1876V12H1880V8Z" fill="black"/>
<path d="M1884 0H1880V4H1884V0Z" fill="black"/>
<path d="M1888 8H1884V12H1888V8Z" fill="black"/>
<path d="M1892 16H1896V12C1894.01 12 1889.99 12 1888 12V16H1892Z" fill="black"/>
<path d="M1884 16H1880V20H1884V16Z" fill="black"/>
<path d="M1888 20H1884V24H1888V20Z" fill="black"/>
<path d="M1884 24H1876V28H1884V24Z" fill="black"/>
<path d="M1872 24H1868V28H1872V24Z" fill="black"/>
<path d="M1876 28H1872C1872 29.992 1872 34.008 1872 36C1874.66 36 1885.15 36 1888 36V32H1876V28Z" fill="black"/>
<path d="M1888 28V32C1889.99 32 1894.01 32 1896 32V28H1892V24H1888V28Z" fill="black"/>
<path d="M1900 20H1892V24H1900V20Z" fill="black"/>
<path d="M1904 24H1900V28H1904V24Z" fill="black"/>
<path d="M1916 36H1912V40H1916V36Z" fill="black"/>
<path d="M1940 0H1936V4H1940V0Z" fill="black"/>
<path d="M1952 0H1948V4H1952V0Z" fill="black"/>
<path d="M1948 4H1944V8H1948V4Z" fill="black"/>
<path d="M1940 12H1936V16H1940V12Z" fill="black"/>
<path d="M1940 20H1936V24H1940V20Z" fill="black"/>
<path d="M1952 28H1948V32H1952V28Z" fill="black"/>
<path d="M1948 24H1940V28H1948V24Z" fill="black"/>
<path d="M1936 32V36H1944V40H1948C1948 38.008 1948 33.992 1948 32C1945.46 32 1938.62 32 1936 32Z" fill="black"/>
<path d="M1948 12H1944V16H1948V12Z" fill="black"/>
<path d="M1952 16H1948V24H1952V16Z" fill="black"/>
<path d="M1904 44H1900V48H1904V44Z" fill="black"/>
<path d="M1892 36V40H1900C1900 38.008 1900 33.992 1900 32H1896V36H1892Z" fill="black"/>
<path d="M1872 36H1868V40H1872V36Z" fill="black"/>
<path d="M1880 44V40H1876V44H1868V48H1876V52H1868C1868 60.11 1868 83.554 1868 92H1884C1884 86.068 1884 61.418 1884 56H1880V52H1884V48H1880V44ZM1880 64H1876V60H1872V56H1876V60H1880V64Z" fill="black"/>
<path d="M1944 52V48H1940V44H1944V40C1942.01 40 1937.99 40 1936 40C1936 42.578 1936 57.106 1936 60H1932V56H1928V48H1924V44H1920V40H1916C1916 42.538 1916 49.376 1916 52H1912V40H1908V28H1904V44H1908V48H1904V52H1908V56H1912C1912 56.176 1912 60.018 1912 60.182L1939.99 92C1939.99 92 1952 92 1952 92C1952 78.35 1952 61.588 1952 48H1948V52H1944ZM1936 68V72H1932V68H1936ZM1928 60V64H1924V60H1920V56H1924V60H1928ZM1948 68H1944V64H1940V60H1944V64H1948V68Z" fill="black"/>
<path d="M1948 44H1944V48H1948V44Z" fill="black"/>
<path d="M1952 40H1948V44H1952V40Z" fill="black"/>
<path d="M636 4H632V8H636V4Z" fill="black"/>
<path d="M648 12H652V8H656V4H652V0H648V4H644V8H648V12Z" fill="black"/>
<path d="M628 12H624V16H628V12Z" fill="black"/>
<path d="M624 16H620V20H624V16Z" fill="black"/>
<path d="M636 16H628V20H636V16Z" fill="black"/>
<path d="M632 24H628V28H632V24Z" fill="black"/>
<path d="M692 28H688V32H692V28Z" fill="black"/>
<path d="M704 28H696V32H704V28Z" fill="black"/>
<path d="M708 52V32H704V36C702.008 36 697.992 36 696 36V40H692V44H696V48H700V52H696V48H692C692 49.992 692 54.008 692 56H696V60H692V56H688.656C680.882 83.818 639.364 83.81 631.592 56H628V52H624V56H620V52H624V40H620V32C618.008 32 613.992 32 612 32V36H616V44H620V48H616V44H612C612 45.992 612 50.008 612 52H616V56H612.448C621.372 102.708 683.142 108.424 703.118 68H700V64H705.034C706.108 61.436 706.972 58.764 707.582 56H704V60H700V56H704V52H708ZM628 72H624V68H628V72ZM644 80H640V76H644V80ZM692 76H688V72H692V76ZM692 68H688V64H692V68ZM700 44V40H704V44H700Z" fill="black"/>
<path d="M620 24H616V28H620V24Z" fill="black"/>
<path d="M624 40H628V52H632V36H628C628 34.008 628 29.992 628 28C626.008 28 621.992 28 620 28V32H624V40Z" fill="black"/>
<path d="M644 8H636V12H644V8Z" fill="black"/>
<path d="M648 16H640V20H648V16Z" fill="black"/>
<path d="M664 12H656V16H664V12Z" fill="black"/>
<path d="M640 20H636V24H640V20Z" fill="black"/>
<path d="M660 0H656V4H660V0Z" fill="black"/>
<path d="M664 4H660V8H664V4Z" fill="black"/>
<path d="M672 0H668V4H672V0Z" fill="black"/>
<path d="M672 12H668V16H672V12Z" fill="black"/>
<path d="M676 16H672V20H676V16Z" fill="black"/>
<path d="M684 16H680V20H684V16Z" fill="black"/>
<path d="M688 20H684V24H688V20Z" fill="black"/>
<path d="M696 20H692V24H696V20Z" fill="black"/>
<path d="M700 16H696V20H700V16Z" fill="black"/>
<path d="M692 12H688V16H692V12Z" fill="black"/>
<path d="M688 8H684V12H688V8Z" fill="black"/>
<path d="M680 4H676V12H680V4Z" fill="black"/>
<path d="M108 0H104V4H108V0Z" fill="black"/>
<path d="M112 4H108V8H112V4Z" fill="black"/>
<path d="M104 8H100V12H104V8Z" fill="black"/>
<path d="M108 12H104V16H108V12Z" fill="black"/>
<path d="M96 4H92V8H96V4Z" fill="black"/>
<path d="M88 8H84V12H88V8Z" fill="black"/>
<path d="M96 12H88V16H96V12Z" fill="black"/>
<path d="M100 16H96V20H100V16Z" fill="black"/>
<path d="M96 20H92V24H96V20Z" fill="black"/>
<path d="M88 20H84V24H88V20Z" fill="black"/>
<path d="M84 16H80V20H84V16Z" fill="black"/>
<path d="M76 20H72V24H76V20Z" fill="black"/>
<path d="M80 24H76V28H80V24Z" fill="black"/>
<path d="M88 28H80V32H88V28Z" fill="black"/>
<path d="M76 28H72V32H76V28Z" fill="black"/>
<path d="M80 32H76V40H80V32Z" fill="black"/>
<path d="M84 40H80V52H84V40Z" fill="black"/>
<path d="M116 8H112V12H116V8Z" fill="black"/>
<path d="M120 4H116V8H120V4Z" fill="black"/>
<path d="M128 8H124V16H128V8Z" fill="black"/>
<path d="M120 12H116V16H120V12Z" fill="black"/>
<path d="M128 0H124V4H128V0Z" fill="black"/>
<path d="M140 4H136V8H140V4Z" fill="black"/>
<path d="M136 8H132V12H136V8Z" fill="black"/>
<path d="M140 12H136V16H140V12Z" fill="black"/>
<path d="M148 12H144V16H148V12Z" fill="black"/>
<path d="M144 16H140V20H144V16Z" fill="black"/>
<path d="M132 16H128V20H132V16Z" fill="black"/>
<path d="M140 20H136V24H140V20Z" fill="black"/>
<path d="M148 20H144V24H148V20Z" fill="black"/>
<path d="M156 20H152V24H156V20Z" fill="black"/>
<path d="M152 24H148V32H152V24Z" fill="black"/>
<path d="M144 28H140V32H144V28Z" fill="black"/>
<path d="M148 32H144V36H148V32Z" fill="black"/>
<path d="M148 40H144V44H148V48H152V52H148V48H144C144 49.992 144 54.008 144 56H148V60H144V56H140.656C132.882 83.818 91.364 83.81 83.592 56H80V52H76V56H72V52H76V40H72V32H68V44H72V48H68V44H64C64 45.992 64 50.008 64 52H68V56H64.448C73.372 102.708 135.142 108.424 155.118 68H152V64H157.034C158.108 61.436 158.972 58.764 159.582 56H156V60H152V56H156V52H160C160 50.008 160 45.992 160 44H152V40H160V36H148V40ZM80 72H76V68H80V72ZM92 80H88V76H92V80ZM144 76H140V72H144V76ZM144 68H140V64H144V68Z" fill="black"/>
<path d="M160 28H156V32H160V28Z" fill="black"/>
<path d="M1284 8H1280V12H1284V8Z" fill="black"/>
<path d="M1272 0H1268V4H1272V0Z" fill="black"/>
<path d="M1264 0H1260V4H1264V0Z" fill="black"/>
<path d="M1256 0H1252V4H1256V0Z" fill="black"/>
<path d="M1248 0H1244V4H1248V0Z" fill="black"/>
<path d="M1244 4H1240V8H1244V4Z" fill="black"/>
<path d="M1268 4H1264V8H1268V4Z" fill="black"/>
<path d="M1276 4H1272V8H1276V4Z" fill="black"/>
<path d="M1276 12H1272V16H1276V12Z" fill="black"/>
<path d="M1280 16H1276V20H1280V16Z" fill="black"/>
<path d="M1268 12H1260V16H1268V12Z" fill="black"/>
<path d="M1260 8H1256V12H1260V8Z" fill="black"/>
<path d="M1252 12H1248V16H1252V12Z" fill="black"/>
<path d="M1248 16H1244V20H1248V16Z" fill="black"/>
<path d="M1244 12H1240V16H1244V12Z" fill="black"/>
<path d="M1236 12H1232V16H1236V12Z" fill="black"/>
<path d="M1240 20H1232V24H1240V20Z" fill="black"/>
<path d="M1248 24H1240V28H1248V24Z" fill="black"/>
<path d="M1272 44V40H1264V44H1260V40H1264V36C1262.01 36 1257.99 36 1256 36V40C1254.01 40 1249.99 40 1248 40C1248 41.992 1248 46.008 1248 48H1252V44H1256V52H1260V48H1268V44H1272Z" fill="black"/>
<path d="M1244 36H1240V40H1244V36Z" fill="black"/>
<path d="M1236 28H1232V32H1236V28Z" fill="black"/>
<path d="M1240 32H1236V36H1240V32Z" fill="black"/>
<path d="M1248 32H1244V36H1248V32Z" fill="black"/>
<path d="M1252 28H1248V32H1252V28Z" fill="black"/>
<path d="M1256 32H1252V36H1256V32Z" fill="black"/>
<path d="M1237.93 88.14C1238.61 88.554 1239.3 88.948 1240 89.308V89.318C1242.53 90.576 1245.2 91.69 1248.01 92.164V92.218C1249.29 92.506 1250.63 92.706 1252 92.85V92.852C1254.55 93.116 1257.35 93.26 1259.99 93.034L1260.01 93.016C1261.39 92.908 1262.71 92.726 1264.02 92.49V92.488C1264.54 92.38 1265.06 92.272 1265.58 92.146H1265.57C1268.97 91.338 1272.28 90.046 1275.18 88.14V88.122C1278.43 86.052 1281.16 83.328 1283.25 80.11H1283.23C1283.48 79.73 1283.76 79.348 1283.99 78.95H1284.01C1288.14 72.284 1288.19 63.648 1288 56H1284.01C1284.01 54.014 1284.01 50.01 1284.01 48.024H1284V48H1280.01V44C1280 44 1276 44 1276 44V52H1272V56H1268V60H1268.01V60.042H1272C1272 60.13 1272 63.984 1272 64.066H1269.96C1269.96 65.462 1269.73 66.804 1269.31 68.072H1269.33C1269 69.088 1268.55 70.012 1268.01 70.9V70.904C1267.75 71.302 1267.52 71.716 1267.23 72.078H1267.23C1265.85 73.978 1263.86 75.262 1261.66 76.084V76.102C1258.65 77.166 1255.15 77.242 1252.02 76.594V76.592C1247.33 75.616 1243.01 73.106 1240 69.34V69.322C1238.92 67.962 1237.99 66.574 1237.15 64.972L1225.81 75.94C1226.82 77.436 1227.82 78.8 1228.98 80.128H1228.99C1231.61 83.236 1234.5 85.998 1237.91 88.122L1237.93 88.14ZM1236 76H1232V72H1236V76ZM1276 52H1280V56H1276V52ZM1276 76H1272V72H1276V76ZM1284 68H1280V64H1276V60H1280V64H1284V68Z" fill="black"/>
<path d="M1268 52H1264V56H1268V52Z" fill="black"/>
<path d="M1272 48H1268V52H1272V48Z" fill="black"/>
<path d="M466.882 56H464C464 52.438 464 47.562 464 44H460V48H456V52H452V48H448C448 49.992 448 54.008 448 56H436V60H432V56H424V48H428V44H424V40H420V36H416V40H412V44H416V48H420V56H416C416 54.008 416 49.992 416 48H412V52H408V56C407.538 56 407.132 56 406.88 56C406.264 57.44 405.648 58.884 405.176 60H408V64C403.724 64 403.516 64 403.492 64C402.64 65.992 392.774 89.228 391.6 92L410.234 91.996L418.718 72C428.356 72 445.058 72 454.792 72L462.912 91.996H481.692L466.882 56ZM404 80H400V76H404V80ZM416 64H412V60H416V64ZM424 68H420V64H424V68ZM444 64H440V60H444V64ZM452 64H448V60H452V64ZM456 56H460V60H456V56ZM456 64H460V68H456V64ZM464 76H460V72H464V76Z" fill="black"/>
<path d="M440 4H436V12H440V4Z" fill="black"/>
<path d="M448 8H444V12H448V8Z" fill="black"/>
<path d="M444 0H440V4H444V0Z" fill="black"/>
<path d="M432 4H428V8H432V4Z" fill="black"/>
<path d="M444 12H440V16H444V12Z" fill="black"/>
<path d="M428 32H432V24H436V20H432C432 18.008 432 13.992 432 12C430.008 12 425.992 12 424 12V16H428V20H424V24H428V32Z" fill="black"/>
<path d="M424 24H420V32H424V24Z" fill="black"/>
<path d="M432 40V36H428V32H424V40C425.992 40 430.008 40 432 40Z" fill="black"/>
<path d="M440 32H436V36H440V32Z" fill="black"/>
<path d="M448 36H440V40H448V36Z" fill="black"/>
<path d="M448 32V36H452C452 34.008 452 29.992 452 28C449.462 28 442.624 28 440 28V32H448Z" fill="black"/>
<path d="M440 24H436V28H440V24Z" fill="black"/>
<path d="M444 20H440V24H444V20Z" fill="black"/>
<path d="M448 16H444V20H448V16Z" fill="black"/>
<path d="M452 20H448V24H452V20Z" fill="black"/>
<path d="M460 36H456V40H460V36Z" fill="black"/>
<path d="M452 44V48H456C456 46.008 456 41.992 456 40H448V44H452Z" fill="black"/>
<path d="M448 44H444V48H448V44Z" fill="black"/>
<path d="M1460 0H1456V4H1460V0Z" fill="black"/>
<path d="M1472 0H1468V4H1472V0Z" fill="black"/>
<path d="M1516 0H1512V4H1516V0Z" fill="black"/>
<path d="M1528 0H1524V4H1528V0Z" fill="black"/>
<path d="M1524 4H1520V8H1524V4Z" fill="black"/>
<path d="M1528 8H1524V12H1528V8Z" fill="black"/>
<path d="M1516 8H1512V12H1516V8Z" fill="black"/>
<path d="M1520 12H1516V16H1520V12Z" fill="black"/>
<path d="M1524 16H1520V20H1524V16Z" fill="black"/>
<path d="M1528 20H1524V24H1528V20Z" fill="black"/>
<path d="M1528 28H1524V32H1528V28Z" fill="black"/>
<path d="M1516 20H1512V24H1516V20Z" fill="black"/>
<path d="M1524 24H1516V28H1524V24Z" fill="black"/>
<path d="M1520 32H1512V36H1520V32Z" fill="black"/>
<path d="M1520 40H1512V44H1516V48H1512C1512.03 51.746 1512.08 56.642 1511.26 60H1516V64H1510.14C1503.67 83.936 1471.27 78.582 1472.15 56H1468V60H1464V56H1468V52H1472C1472 49.462 1472 42.624 1472 40H1468V44H1464V40H1460C1460 41.992 1460 46.008 1460 48H1456C1455.93 54.644 1456 61.632 1457.74 68H1464V72H1459.03C1476 108 1527.94 96 1527.94 56H1524V52H1528V48H1520V44H1524V40H1528V36H1520V40ZM1476 80H1472V76H1476V80ZM1512 76H1508V72H1512V76ZM1516 56V52H1520V56H1516ZM1524 64V68H1520V64H1524Z" fill="black"/>
<path d="M1468 4H1464V8H1468V4Z" fill="black"/>
<path d="M1460 8H1456V12H1460V8Z" fill="black"/>
<path d="M1464 12H1460V16H1464V12Z" fill="black"/>
<path d="M1472 8H1468V12H1472V8Z" fill="black"/>
<path d="M1468 16H1464V24H1468V16Z" fill="black"/>
<path d="M1472 24H1468V36H1472V24Z" fill="black"/>
<path d="M1460 20H1456V24H1460V20Z" fill="black"/>
<path d="M1464 24H1460V28H1464V24Z" fill="black"/>
<path d="M1460 28H1456V32H1460V28Z" fill="black"/>
<path d="M1464 32H1460V36H1464V32Z" fill="black"/>
<path d="M1468 36H1464V40H1468V36Z" fill="black"/>
<path d="M1460 36H1456V40H1460V36Z" fill="black"/>
<path d="M1096 32H1092V36H1096V32Z" fill="black"/>
<path d="M1092 24H1088V32H1092V24Z" fill="black"/>
<path d="M1084 20H1080V32H1084V20Z" fill="black"/>
<path d="M1096 20H1092V24H1096V20Z" fill="black"/>
<path d="M1092 12H1088V20H1092V12Z" fill="black"/>
<path d="M1096 8H1092V12H1096V8Z" fill="black"/>
<path d="M1096 0H1092V4H1096V0Z" fill="black"/>
<path d="M1140 0H1136V4H1140V0Z" fill="black"/>
<path d="M1152 0H1148V4H1152V0Z" fill="black"/>
<path d="M1148 4H1144V8H1148V4Z" fill="black"/>
<path d="M1152 8H1148V12H1152V8Z" fill="black"/>
<path d="M1136 16H1140V12H1144V8H1136V16Z" fill="black"/>
<path d="M1152 24H1148V32H1152V24Z" fill="black"/>
<path d="M1148 16H1144V24H1148V16Z" fill="black"/>
<path d="M1140 20H1136V24H1140V20Z" fill="black"/>
<path d="M1144 28C1142.01 28 1137.99 28 1136 28V32H1140V40H1144V44H1140V40H1136C1136 42.656 1136 49.434 1136 52H1140V56H1144V60H1140V56H1135.85C1136.73 78.584 1104.32 83.936 1097.86 64H1092V60H1096.74C1095.92 56.648 1095.97 51.74 1096 48H1092V44H1096V40H1088C1088 38.008 1088 33.992 1088 32H1084V36H1080V40H1084V44H1088V48H1080V52H1084V56H1080.06C1080 96 1132 106 1148.97 72H1144V68H1150.26C1152.36 60.354 1151.98 51.926 1152 44H1148V40H1152V36H1144V28ZM1088 68H1084V64H1088V68ZM1088 56V52H1092V56H1088ZM1100 76H1096V72H1100V76ZM1136 80H1132V76H1136V80Z" fill="black"/>
<path d="M1088 4H1084V8H1088V4Z" fill="black"/>
<path d="M1084 0H1080V4H1084V0Z" fill="black"/>
<path d="M1084 12H1080V16H1084V12Z" fill="black"/>
<path d="M1400 60V56H1404L1404 56.158L1404.01 56L1404 60H1412V52H1404V44C1402.01 44 1397.99 44 1396 44V48H1400V52H1396V56H1388V48H1384V44H1380L1380.01 40H1384V36H1380V40H1376L1376.01 48H1380V52H1384V56H1380V52H1376V56H1372V60H1376V64H1374.98L1386.5 92H1396.96L1408 65.91L1408.78 64H1404V60H1400ZM1380 60H1384V64H1380V60ZM1388 72H1384V68H1388V72Z" fill="black"/>
<path d="M1836 56V52H1832V48H1828V56H1832V60H1828V56H1824.66C1823.72 58.88 1822.37 61.562 1820.72 64H1824V68H1817.52C1803.2 85.104 1772.14 76.494 1768.18 56H1764H1760V52H1764V48H1760V40H1756V36H1752V32H1748V40H1752V44H1756V48H1752V44H1748C1748 45.992 1748 50.008 1748 52H1752V56H1748.45C1758.81 107.934 1833.23 107.91 1843.58 56H1836ZM1760 64V60H1764V64H1760ZM1768 76H1764V72H1768V76ZM1816 80H1812V76H1816V80ZM1836 68H1832V64H1836V68Z" fill="black"/>
</svg>
