<svg width="2950" height="578" fill="none" xmlns="http://www.w3.org/2000/svg"><g clip-path="url(#clip0_1309_2)"><path d="M67.915 71.65H.5V49.597h212.649V71.65h-68.871v472.876h65.958c129.733 0 170.827-17.58 170.827-153.222h17.582v175.17H.5v-22.052h67.415V71.65zM1711.89 471.919c0-79.887 69.7-81.343 128.28-81.343h11.02v98.923c0 13.939-24.96 55.027-83.54 55.027-46.19 0-55.76-27.878-55.76-72.607zm286.62 57.108L1983.11 518c-10.3 15.395-20.49 28.606-38.08 28.606-15.39 0-21.22-8.842-21.22-29.334V314.953c0-80.616-66.69-106.309-128.28-106.309-78.44 0-137.11 39.528-137.11 91.642 0 28.606 16.85 47.641 41.82 47.641 22.68 0 40.36-16.123 40.36-37.343 0-18.307-5.82-28.605-18.31-36.615-7.38-4.369-8.84-5.825-8.84-10.298 0-16.851 36.62-32.974 74.8-32.974s63.05 15.395 63.05 49.825v85.089h-12.49c-82.08 0-203.8 24.133-203.8 118.791 0 57.211 38.07 91.642 102.68 91.642 54.31 0 88.01-14.667 116.62-49.826 7.39 30.062 35.17 49.826 71.17 49.826 32.25 0 54.2-13.939 73.34-46.913l-.31-.104zm652.62-404.639l13.94-45.457 117.35 44.001L2777.32.5h46.19l-6.55 122.432 117.35-44 15.4 45.456-118.08 34.431 77.71 95.282-41.09 30.79-68.15-106.308-67.41 106.308-38.91-30.79 76.26-95.282-118.81-34.431h-.1zm-637.22 442.086h191.42v-22.052h-57.95V326.707c25.7-59.395 61.59-90.185 104.87-90.185 32.98 0 49.11 16.851 49.11 49.825v258.075h-60.86v22.052h192.05v-22.052h-57.22V339.918c16.12-60.124 57.94-103.396 99.77-103.396 37.35 0 53.47 19.764 53.47 65.949v241.951h-61.59v22.052h194.34v-22.052h-59.4v-233.11c0-63.764-38.08-101.939-104.87-102.668-55.77-.728-101.23 30.79-123.18 81.344-10.3-68.861-58.68-81.344-104.14-81.344-50.56 0-89.47 23.405-122.45 74.791v-79.888c-11.76 15.395-32.25 21.949-84.37 21.949h-49.11v22.052h60.86v296.874h-60.86v22.052h.11zM535.764 471.919c0-79.887 69.704-81.343 128.277-81.343h11.027v98.923c0 13.939-24.968 55.027-83.644 55.027-46.192 0-55.764-27.878-55.764-72.607h.104zm286.723 57.108L807.09 518c-10.3 15.395-20.495 28.606-38.077 28.606-15.397 0-21.224-8.842-21.224-29.334V314.953c0-80.616-66.687-106.309-128.276-106.309-78.443 0-137.119 39.528-137.119 91.642 0 28.606 16.854 47.641 41.822 47.641 22.68 0 40.366-16.123 40.366-37.343 0-18.307-5.826-28.605-18.31-36.615-7.387-4.369-8.843-5.825-8.843-10.298 0-16.851 36.621-32.974 74.802-32.974 38.181 0 63.045 15.395 63.045 49.825v85.089h-12.484c-82.084 0-203.806 24.133-203.806 118.791 0 57.211 38.077 91.642 102.683 91.642 54.307 0 88.015-14.667 116.625-49.826 7.282 30.062 35.164 49.826 71.16 49.826 32.251 0 54.203-13.939 73.345-46.913l-.312-.104zm763.203-82.072h-18.31c-2.91 60.123-52.74 104.124-119.53 104.124-86.56 0-90.2-65.221-90.2-142.924v-40.36c0-98.195 26.42-137.098 93.84-137.098 35.89 0 52.02 13.21 52.02 22.78 0 13.939-19.04 13.211-19.04 42.544 0 21.22 17.58 38.176 41.82 38.176 27.15 0 44.01-19.036 44.01-45.457 0-47.641-49.11-79.888-117.36-79.888-96.02 0-177.48 82.072-177.48 196.495 0 106.308 72.62 170.801 172.28 170.801 73.35 0 134.94-57.94 137.85-128.985l.1-.208zM865.662 183.784c0 102.667 59.405 139.283 172.288 159.046 86.55 15.395 132.75 36.616 132.75 107.037 0 65.221-52.86 102.668-121 102.668-98.937 0-162.815-67.405-160.526-175.898h-17.582v193.582h17.582c0-23.405 2.185-30.062 15.398-30.062 32.979 0 71.888 37.343 146.688 37.343 98.21 0 167.19-63.036 167.19-169.345s-58.68-128.985-180.4-154.678c-94.569-19.764-125.364-36.719-125.364-95.282 0-58.564 41.094-98.3 106.324-98.3 82.09 0 136.39 57.94 143.67 154.679h16.13V51.782h-15.4c-.73 8.114-3.64 27.15-19.76 27.15-6.56 0-12.49-3.642-28.61-13.94-20.5-13.21-50.57-30.061-97.49-30.061-85.097 0-151.784 56.483-151.784 148.853h-.104z" fill="#EB356D"/></g><defs><clipPath id="clip0_1309_2"><path fill="#fff" transform="translate(.5 .5)" d="M0 0h2949v577H0z"/></clipPath></defs></svg>